<?xml version="1.0" standalone="no"?>
<!DOCTYPE svg PUBLIC "-//W3C//DTD SVG 20010904//EN"
 "http://www.w3.org/TR/2001/REC-SVG-20010904/DTD/svg10.dtd">
<svg version="1.0" xmlns="http://www.w3.org/2000/svg"
 width="260.000000pt" height="260.000000pt" viewBox="0 0 260.000000 260.000000"
 preserveAspectRatio="xMidYMid meet">
<metadata>
Created by potrace 1.14, written by Peter Selinger 2001-2017
</metadata>
<g transform="translate(0.000000,260.000000) scale(0.100000,-0.100000)"
fill="#000000" stroke="none">
<path d="M228 2586 c-67 -24 -126 -65 -161 -113 -71 -98 -68 -30 -65 -1193 l3
-1045 24 -50 c32 -63 92 -124 156 -155 l50 -25 1065 0 1065 0 50 24 c63 32
124 92 155 156 l25 50 0 1065 0 1065 -24 49 c-31 63 -86 118 -153 153 l-53 28
-1050 2 c-847 2 -1057 0 -1087 -11z m1254 -646 c9 -107 18 -219 20 -248 l3
-53 -100 -38 c-204 -77 -394 -188 -516 -299 l-66 -61 -179 76 c-98 41 -182 78
-186 82 -6 5 84 296 95 308 3 2 123 -24 267 -57 144 -34 263 -60 265 -58 2 2
13 120 25 263 12 143 23 266 26 273 3 10 41 12 166 10 l163 -3 17 -195z m612
-369 c24 -76 46 -146 48 -156 2 -14 -12 -22 -82 -41 -430 -115 -793 -394
-1004 -769 -34 -60 -52 -83 -61 -77 -7 4 -89 56 -183 116 l-171 110 27 45
c140 246 352 470 594 628 178 117 426 219 623 257 44 8 89 17 100 19 63 14 61
17 109 -132z m-300 -640 c69 -115 126 -212 126 -217 0 -15 -261 -197 -269
-188 -166 192 -251 295 -251 306 0 45 138 217 224 280 21 15 40 28 42 28 1 0
59 -94 128 -209z"/>
</g>
</svg>
