<svg width="96" height="96" viewBox="0 0 96 96" fill="none" xmlns="http://www.w3.org/2000/svg">
<path d="M48 88C70.0914 88 88 70.0914 88 48C88 25.9086 70.0914 8 48 8C25.9086 8 8 25.9086 8 48C8 70.0914 25.9086 88 48 88ZM38.1048 24.1444C40.6647 24.0276 41.482 24 48 24C54.518 24 55.3353 24.0276 57.8952 24.1444C60.4497 24.2609 62.1943 24.6667 63.7209 25.26C65.2991 25.8733 66.6376 26.6939 67.9719 28.0281C69.3061 29.3625 70.1267 30.7009 70.7401 32.2791C71.3333 33.8057 71.7391 35.5503 71.8556 38.1048C71.9724 40.6647 72 41.482 72 48C72 54.518 71.9724 55.3353 71.8556 57.8952C71.7391 60.4497 71.3333 62.1943 70.7401 63.7209C70.1267 65.2991 69.3061 66.6376 67.9719 67.9719C66.6376 69.3061 65.2991 70.1267 63.7209 70.7401C62.1943 71.3333 60.4497 71.7391 57.8952 71.8556C55.3353 71.9724 54.518 72 48 72C41.482 72 40.6647 71.9724 38.1048 71.8556C35.5503 71.7391 33.8057 71.3333 32.2791 70.7401C30.7009 70.1267 29.3625 69.3061 28.0281 67.9719C26.6939 66.6376 25.8733 65.2991 25.26 63.7209C24.6667 62.1943 24.2609 60.4497 24.1444 57.8952C24.0276 55.3353 24 54.518 24 48C24 41.482 24.0276 40.6647 24.1444 38.1048C24.2609 35.5503 24.6667 33.8057 25.26 32.2791C25.8733 30.7009 26.6939 29.3625 28.0281 28.0281C29.3625 26.6939 30.7009 25.8733 32.2791 25.26C33.8057 24.6667 35.5503 24.2609 38.1048 24.1444ZM57.6981 28.4643C55.1674 28.3488 54.4083 28.3243 48 28.3243C41.5917 28.3243 40.8326 28.3488 38.3019 28.4643C35.962 28.571 34.6912 28.9619 33.8455 29.2906C32.7252 29.726 31.9257 30.2461 31.0859 31.0859C30.2461 31.9257 29.726 32.7252 29.2906 33.8455C28.9619 34.6912 28.571 35.962 28.4643 38.3019C28.3488 40.8326 28.3243 41.5917 28.3243 48C28.3243 54.4083 28.3488 55.1674 28.4643 57.6981C28.571 60.038 28.9619 61.3088 29.2906 62.1545C29.726 63.2748 30.2462 64.0743 31.0859 64.9141C31.9257 65.7539 32.7252 66.274 33.8455 66.7094C34.6912 67.0381 35.962 67.429 38.3019 67.5357C40.8324 67.6512 41.5913 67.6757 48 67.6757C54.4087 67.6757 55.1677 67.6512 57.6981 67.5357C60.038 67.429 61.3088 67.0381 62.1545 66.7094C63.2748 66.274 64.0743 65.7539 64.9141 64.9141C65.7539 64.0743 66.274 63.2748 66.7094 62.1545C67.0381 61.3088 67.429 60.038 67.5357 57.6981C67.6512 55.1674 67.6757 54.4083 67.6757 48C67.6757 41.5917 67.6512 40.8326 67.5357 38.3019C67.429 35.962 67.0381 34.6912 66.7094 33.8455C66.274 32.7252 65.7539 31.9257 64.9141 31.0859C64.0743 30.2461 63.2748 29.726 62.1545 29.2906C61.3088 28.9619 60.038 28.571 57.6981 28.4643ZM35.6757 48C35.6757 41.1934 41.1934 35.6757 48 35.6757C54.8066 35.6757 60.3243 41.1934 60.3243 48C60.3243 54.8066 54.8066 60.3243 48 60.3243C41.1934 60.3243 35.6757 54.8066 35.6757 48ZM40 48C40 52.4183 43.5817 56 48 56C52.4183 56 56 52.4183 56 48C56 43.5817 52.4183 40 48 40C43.5817 40 40 43.5817 40 48ZM60.8112 32.3087C62.4018 32.3087 63.6913 33.5982 63.6913 35.1888C63.6913 36.7794 62.4018 38.0687 60.8112 38.0687C59.2207 38.0687 57.9313 36.7794 57.9313 35.1888C57.9313 33.5982 59.2207 32.3087 60.8112 32.3087Z" fill="white"/>
</svg>
