<svg width="96" height="96" viewBox="0 0 96 96" fill="none" xmlns="http://www.w3.org/2000/svg">
<path d="M48 8C26 8 8 26 8 48C8 70 26 88 48 88C70 88 88 70 88 48C88 26 70 8 48 8ZM64.228 65.624C63.476 65.624 63.1 65.248 62.348 64.872C56.704 61.484 49.556 59.604 42.032 59.604C37.892 59.604 33.38 60.356 29.616 61.108C28.864 61.108 28.112 61.484 27.736 61.484C26.232 61.484 25.104 60.356 25.104 58.852C25.104 57.348 25.856 56.22 27.36 56.22C32.252 55.092 37.144 54.34 42.412 54.34C51.064 54.34 58.968 56.596 65.74 60.36C66.492 61.112 67.244 61.488 67.244 62.992C66.484 64.872 65.356 65.624 64.228 65.624ZM68.364 55.092C67.612 55.092 66.86 54.716 66.108 54.34C59.712 50.2 50.68 47.944 40.9 47.944C36.008 47.944 31.492 48.696 28.108 49.448C27.356 49.824 26.98 49.824 26.228 49.824C24.348 49.824 23.216 48.32 23.216 46.812C23.216 44.932 23.968 44.18 25.848 43.424C30.364 42.296 34.88 41.168 41.276 41.168C51.812 41.168 61.592 43.8 69.872 48.692C71 49.444 71.752 50.572 71.752 51.704C71.376 53.584 70.248 55.092 68.364 55.092ZM73.256 43.048C72.504 43.048 72.128 42.672 71 42.296C63.476 38.156 52.564 35.524 42.028 35.524C36.76 35.524 31.116 36.276 26.224 37.404C25.472 37.404 25.096 37.78 23.968 37.78C21.712 38.16 20.204 36.276 20.204 34.02C20.204 31.764 21.332 30.632 22.836 30.256C28.86 28.752 35.256 28 42.028 28C53.692 28 65.732 30.632 75.14 35.524C76.268 36.276 77.396 37.404 77.396 39.288C77.02 41.544 75.512 43.048 73.256 43.048Z" fill="white"/>
</svg>
