<svg width="24" height="24" viewBox="0 0 24 24" fill="none" xmlns="http://www.w3.org/2000/svg">
<path d="M20 12C20 7.58172 16.4183 4 12 4C7.58172 4 4 7.58172 4 12C4 16.4183 7.58172 20 12 20C16.4183 20 20 16.4183 20 12ZM22 12C22 17.5228 17.5228 22 12 22C6.47715 22 2 17.5228 2 12C2 6.47715 6.47715 2 12 2C17.5228 2 22 6.47715 22 12ZM11 8.75C11 8.33579 11.3358 8 11.75 8C12.1642 8 12.5 8.33579 12.5 8.75V12.5H16.25C16.6642 12.5 17 12.8358 17 13.25C17 13.6642 16.6642 14 16.25 14H11.75C11.3358 14 11 13.6642 11 13.25V8.75Z" fill="white"/>
</svg>
