<svg width="1344" height="678" viewBox="0 0 1344 678" fill="none" xmlns="http://www.w3.org/2000/svg">
<path d="M6.14608 666.731L0 11.2687H8.38101L11.6217 386.892L13.2979 585.033H14.1918L24.4726 182.177H34.9768L45.2575 585.033H46.1514L47.8276 386.892L51.0683 11.2687H59.2258L53.0797 666.731H39.5584L30.0599 275.144H29.1659L19.6674 666.731H6.14608Z" fill="white"/>
<path d="M109.356 369.05H78.9614V666.731H69.5746V11.2687H78.9614V300.499H109.356V11.2687H118.743V666.731H109.356V369.05Z" fill="white"/>
<path d="M178.931 666.731L172.338 479.859H144.96L138.367 666.731H128.645L152.559 11.2687H164.963L188.877 666.731H178.931ZM159.152 94.8449H158.146L147.195 411.307H170.103L159.152 94.8449Z" fill="white"/>
<path d="M227.944 79.82V666.731H218.558V79.82H192.521V11.2687H253.981V79.82H227.944Z" fill="white"/>
<path d="M328.206 666.731V603.814H347.65V74.1856H328.206V11.2687H376.48V74.1856H357.036V603.814H376.48V666.731H328.206Z" fill="white"/>
<path d="M416.666 678C409.663 678 403.926 667.357 399.457 646.072C394.987 624.161 391.299 596.302 388.394 562.496L395.21 515.543C398.265 547.471 401.468 571.26 404.82 586.911C408.247 602.562 412.307 610.388 417.001 610.388C422.663 610.388 426.984 599.432 429.963 577.521C432.943 555.609 434.433 524.934 434.433 485.493C434.433 453.565 433.353 428.837 431.193 411.307C429.032 393.152 425.27 380.319 419.906 372.806L411.19 360.598C407.391 354.964 404.187 346.512 401.58 335.244C399.047 323.975 396.998 310.515 395.434 294.864C393.869 278.587 392.752 261.058 392.081 242.277C391.411 222.87 391.076 202.837 391.076 182.177C391.076 122.078 393.422 76.6897 398.116 46.0139C402.809 15.338 409.141 0 417.113 0C423.37 0 428.622 8.76453 432.869 26.2936C437.19 43.8227 440.654 68.5512 443.261 100.479L436.668 148.371C434.508 124.582 431.9 105.175 428.846 90.1496C425.792 75.1247 421.843 67.6122 417.001 67.6122C411.711 67.6122 407.651 77.0028 404.82 95.7839C401.989 114.565 400.574 142.737 400.574 180.299C400.574 209.723 401.617 233.825 403.703 252.607C405.863 270.762 409.7 283.909 415.213 292.047L423.594 304.255C427.393 309.889 430.597 318.341 433.204 329.609C435.811 340.878 437.897 354.338 439.462 369.989C441.101 385.64 442.256 403.169 442.926 422.576C443.597 441.983 443.932 462.33 443.932 483.615C443.932 544.341 441.548 591.92 436.78 626.352C432.087 660.784 425.382 678 416.666 678Z" fill="white"/>
<path d="M561.179 369.05H530.783V666.731H521.397V11.2687H530.783V300.499H561.179V11.2687H570.565V666.731H561.179V369.05Z" fill="white"/>
<path d="M595.329 11.2687V404.734C595.329 436.662 595.441 465.147 595.665 490.188C595.888 515.23 596.484 536.828 597.453 554.983C598.421 572.512 599.911 585.972 601.923 595.363C604.009 604.753 606.877 609.449 610.527 609.449C614.177 609.449 617.008 604.753 619.02 595.363C621.106 585.972 622.633 572.512 623.601 554.983C624.57 536.828 625.166 515.23 625.389 490.188C625.613 465.147 625.725 436.662 625.725 404.734V11.2687H635.111V385.953C635.111 434.784 634.813 477.355 634.217 513.665C633.696 549.975 632.541 580.338 630.753 604.753C629.04 629.169 626.544 647.637 623.266 660.158C620.063 672.053 615.816 678 610.527 678C605.238 678 600.954 672.053 597.676 660.158C594.473 647.637 591.977 629.169 590.189 604.753C588.476 580.338 587.321 549.975 586.725 513.665C586.204 477.355 585.943 434.784 585.943 385.953V11.2687H595.329Z" fill="white"/>
<path d="M692.394 338.061V130.529H691.5L675.073 467.651L658.646 130.529H657.752V338.061V666.731H649.148V11.2687H661.216L674.961 300.499H675.632L689.377 11.2687H700.998V666.731H692.394V338.061Z" fill="white"/>
<path d="M759.845 666.731L753.252 479.859H725.874L719.281 666.731H709.559L733.473 11.2687H745.877L769.791 666.731H759.845ZM740.066 94.8449H739.06L728.109 411.307H751.017L740.066 94.8449Z" fill="white"/>
<path d="M788.856 111.748H788.074V666.731H779.581V11.2687H792.879L819.474 560.618H820.257V11.2687H828.749V666.731H815.452L788.856 111.748Z" fill="white"/>
<path d="M953.483 666.731L946.89 479.859H919.512L912.919 666.731H903.197L927.111 11.2687H939.515L963.429 666.731H953.483ZM933.704 94.8449H932.698L921.747 411.307H944.655L933.704 94.8449Z" fill="white"/>
<path d="M982.494 111.748H981.712V666.731H973.219V11.2687H986.517L1013.11 560.618H1013.89V11.2687H1022.39V666.731H1009.09L982.494 111.748Z" fill="white"/>
<path d="M1057.66 666.731V409.429L1030.72 11.2687H1041.45L1052.63 182.177L1062.13 331.488H1062.57L1072.29 182.177L1083.47 11.2687H1093.97L1067.04 409.429V666.731H1057.66Z" fill="white"/>
<path d="M1103.43 666.731L1097.28 11.2687H1105.66L1108.9 386.892L1110.58 585.033H1111.47L1121.75 182.177H1132.26L1142.54 585.033H1143.43L1145.11 386.892L1148.35 11.2687H1156.51L1150.36 666.731H1136.84L1127.34 275.144H1126.45L1116.95 666.731H1103.43Z" fill="white"/>
<path d="M1211.67 666.731L1205.07 479.859H1177.7L1171.1 666.731H1161.38L1185.3 11.2687H1197.7L1221.61 666.731H1211.67ZM1191.89 94.8449H1190.88L1179.93 411.307H1202.84L1191.89 94.8449Z" fill="white"/>
<path d="M1251.29 666.731V409.429L1224.36 11.2687H1235.09L1246.27 182.177L1255.76 331.488H1256.21L1265.93 182.177L1277.11 11.2687H1287.61L1260.68 409.429V666.731H1251.29Z" fill="white"/>
<path d="M1313.72 464.834V317.402C1320.12 314.898 1325.15 303.316 1328.8 282.657C1332.45 261.371 1334.28 229.443 1334.28 186.873V173.726C1334.28 138.668 1333.01 112.374 1330.48 94.8449C1328.02 77.3158 1324.63 68.5512 1320.31 68.5512C1315.84 68.5512 1312.26 78.8809 1309.58 99.5402C1306.9 120.199 1305.04 146.493 1303.99 178.421L1295.61 152.127C1296.36 131.468 1297.4 112.061 1298.74 93.9058C1300.08 75.1246 1301.76 58.8476 1303.77 45.0748C1305.86 31.3019 1308.28 20.3463 1311.03 12.2078C1313.87 4.06924 1317.07 0 1320.65 0C1324.22 0 1327.42 4.38225 1330.26 13.1468C1333.16 21.2853 1335.62 33.1801 1337.63 48.831C1339.64 63.856 1341.21 82.3241 1342.32 104.235C1343.44 126.147 1344 150.562 1344 177.482C1344 206.906 1343.37 232.886 1342.1 255.424C1340.83 277.335 1339.19 296.116 1337.18 311.767C1335.17 327.418 1332.86 340.252 1330.26 350.269C1327.72 359.659 1325.15 366.233 1322.54 369.989V464.834H1313.72ZM1318.52 675.183C1315.47 675.183 1313.31 669.862 1312.04 659.219C1310.85 648.576 1310.25 635.116 1310.25 618.839V601.936C1310.25 585.659 1310.85 572.199 1312.04 561.557C1313.31 550.914 1315.47 545.593 1318.52 545.593C1321.58 545.593 1323.7 550.914 1324.89 561.557C1326.16 572.199 1326.79 585.659 1326.79 601.936V618.839C1326.79 635.116 1326.16 648.576 1324.89 659.219C1323.7 669.862 1321.58 675.183 1318.52 675.183Z" fill="white"/>
</svg>
